<?xml version="1.0" encoding="utf-8"?>
<!-- Generator: Adobe Illustrator 20.0.0, SVG Export Plug-In . SVG Version: 6.00 Build 0)  -->
<svg version="1.1" id="Layer_1" xmlns="http://www.w3.org/2000/svg" xmlns:xlink="http://www.w3.org/1999/xlink" x="0px" y="0px"
	 viewBox="0 0 312 82.3" style="enable-background:new 0 0 312 82.3;" xml:space="preserve">
<style type="text/css">
	.st0{fill-rule:evenodd;clip-rule:evenodd;fill:#FFFFFF;}
	.st1{fill:#009FE3;}
</style>
<g>
	<path d="M105.3,29.2l-5.1-10.4h-3.7v10.4h-5.1v-26h10.2c5.3,0,8.4,3.6,8.4,8c0,3.7-2.2,5.9-4.8,6.8l5.8,11.2H105.3z M101.4,7.7
		h-4.8v6.9h4.8c2.2,0,3.7-1.4,3.7-3.4S103.6,7.7,101.4,7.7z"/>
	<path d="M115.3,29.2v-26h17.2v4.5h-12.1v6.1h10.3v4.5h-10.3v6.3h12.1v4.5H115.3z"/>
	<path d="M152,29.2l-1.5-4.6h-9.3l-1.6,4.6h-5.3l9.5-26h4l9.5,26H152z M146,10.8l-3.3,9.5h6.5L146,10.8z"/>
	<path d="M160.4,29.2v-26h5.1v21.5h11.8v4.5H160.4z"/>
	<path d="M211.9,29.2h-4.2l-4.8-15.8L198,29.2h-4.2l-7-26h5.3l4,16.4l4.8-16.4h3.8l4.8,16.4l4.1-16.4h5.3L211.9,29.2z"/>
	<path d="M237.3,26.6c-1.8,1.8-4.1,2.9-7,2.9c-3,0-5.2-1-7.1-2.9c-2.6-2.6-2.6-5.9-2.6-10.4c0-4.5-0.1-7.8,2.6-10.4
		c1.8-1.8,4.1-2.9,7.1-2.9c3,0,5.2,1,7,2.9c2.6,2.6,2.6,5.9,2.6,10.4C239.9,20.7,240,23.9,237.3,26.6z M233.6,8.9
		c-0.7-0.8-1.9-1.4-3.3-1.4c-1.4,0-2.6,0.5-3.3,1.4c-1,1.1-1.2,2.3-1.2,7.3c0,5,0.3,6.2,1.2,7.3c0.7,0.8,1.9,1.4,3.3,1.4
		c1.4,0,2.5-0.5,3.3-1.4c1-1.1,1.3-2.3,1.3-7.3C234.9,11.2,234.6,10,233.6,8.9z"/>
	<path d="M258.8,29.2l-5.1-10.4h-3.7v10.4H245v-26h10.2c5.3,0,8.4,3.6,8.4,8c0,3.7-2.2,5.9-4.8,6.8l5.8,11.2H258.8z M254.9,7.7h-4.8
		v6.9h4.8c2.2,0,3.7-1.4,3.7-3.4S257.1,7.7,254.9,7.7z"/>
	<path d="M268.8,29.2v-26h5.1v21.5h11.8v4.5H268.8z"/>
	<path d="M305.9,26.7c-1.7,1.7-4.2,2.5-6.9,2.5h-9.4v-26h9.4c2.7,0,5.2,0.8,6.9,2.5c2.9,2.9,2.6,6.5,2.6,10.4
		C308.6,20,308.9,23.8,305.9,26.7z M302.4,9.3c-0.9-1.1-2-1.6-3.8-1.6h-3.8v17h3.8c1.8,0,2.9-0.5,3.8-1.6c1-1.2,1.1-3,1.1-7
		C303.5,12.1,303.3,10.5,302.4,9.3z"/>
	<path d="M108.7,78.6h-3.6L91.6,37.3h4.6L107,70.8l10.7-33.4h4.6L108.7,78.6z"/>
	<path d="M128.1,78.6V37.3h4.4v41.3H128.1z"/>
	<path d="M154.4,79c-6.2,0-10.3-1.6-14.2-5.5l3-3c3.4,3.4,6.6,4.5,11.3,4.5c6,0,9.7-2.8,9.7-7.7c0-2.1-0.6-4-2-5.2
		c-1.3-1.2-2.4-1.5-5.4-2l-4.8-0.8c-3.2-0.5-5.8-1.6-7.6-3.1c-2.1-1.9-3.1-4.4-3.1-7.7c0-7,5-11.7,13.2-11.7c5.3,0,8.8,1.3,12.3,4.5
		l-2.8,2.8c-2.6-2.3-5.3-3.5-9.6-3.5c-5.5,0-8.7,3.1-8.7,7.7c0,2,0.6,3.7,1.9,4.8c1.3,1.1,3.4,1.9,5.6,2.3l4.5,0.7
		c3.9,0.6,5.8,1.4,7.5,2.9c2.3,1.9,3.5,4.8,3.5,8.2C168.6,74.5,162.9,79,154.4,79z"/>
	<path d="M191,79c-8.4,0-14.4-5.7-14.4-14V37.3h4.4v27.3c0,6.3,3.9,10.4,10,10.4c6,0,10-4.1,10-10.4V37.3h4.4V65
		C205.4,73.3,199.3,79,191,79z"/>
	<path d="M240.2,78.6l-3.3-9.3h-18l-3.3,9.3h-4.7L226,37.3h3.7l15.1,41.3H240.2z M227.9,43.7l-7.8,21.8h15.4L227.9,43.7z"/>
	<path d="M250.8,78.6V37.3h4.4v37.4h21.1v3.9H250.8z"/>
	<path d="M294,79c-6.2,0-10.3-1.6-14.2-5.5l3-3c3.4,3.4,6.6,4.5,11.3,4.5c6,0,9.7-2.8,9.7-7.7c0-2.1-0.6-4-2-5.2
		c-1.3-1.2-2.4-1.5-5.4-2l-4.8-0.8c-3.2-0.5-5.8-1.6-7.6-3.1c-2.1-1.9-3.1-4.4-3.1-7.7c0-7,5-11.7,13.2-11.7c5.3,0,8.8,1.3,12.3,4.5
		l-2.8,2.8c-2.6-2.3-5.3-3.5-9.6-3.5c-5.5,0-8.7,3.1-8.7,7.7c0,2,0.6,3.7,1.9,4.8c1.3,1.1,3.4,1.9,5.6,2.3l4.5,0.7
		c3.9,0.6,5.8,1.4,7.5,2.9c2.3,1.9,3.5,4.8,3.5,8.2C308.3,74.5,302.6,79,294,79z"/>
</g>
<g>
	<rect x="3.4" y="2.9" width="75.6" height="75.6"/>
	<path class="st0" d="M72.4,40.9c0,17.2-14,31.2-31.2,31.2c-17.2,0-31.2-14-31.2-31.2c0-17.2,14-31.2,31.2-31.2
		C58.4,9.7,72.4,23.7,72.4,40.9z M41.2,16.1c-13.7,0-24.8,11.1-24.8,24.8c0,13.7,11.1,24.8,24.8,24.8C54.9,65.8,66,54.6,66,40.9
		C66,27.2,54.9,16.1,41.2,16.1z"/>
	<circle class="st1" cx="41.2" cy="27.3" r="5.6"/>
</g>
</svg>
