<?xml version="1.0" encoding="utf-8"?>
<!-- Generator: Adobe Illustrator 19.0.1, SVG Export Plug-In . SVG Version: 6.00 Build 0)  -->
<!DOCTYPE svg PUBLIC "-//W3C//DTD SVG 1.1//EN" "http://www.w3.org/Graphics/SVG/1.1/DTD/svg11.dtd">
<svg version="1.1" id="Layer_1" xmlns="http://www.w3.org/2000/svg" xmlns:xlink="http://www.w3.org/1999/xlink" x="0px" y="0px"
	 viewBox="-235 335.1 123 172.8" style="enable-background:new -235 335.1 123 172.8;" xml:space="preserve">
<style type="text/css">
	.st0{fill:#FFFFFF;}
	.st1{fill:#009FE3;}
	.st2{fill:none;}
</style>
<g>
	<rect x="-298.7" y="184.4" width="74.6" height="74.6"/>
	<g>
		<path class="st0" d="M-230.6,221.9c0,17-13.8,30.8-30.8,30.8c-17,0-30.8-13.8-30.8-30.8c0-17,13.8-30.8,30.8-30.8
			C-244.4,191.1-230.6,204.9-230.6,221.9z M-261.4,197.3c-13.5,0-24.5,11-24.5,24.5s11,24.5,24.5,24.5c13.5,0,24.5-11,24.5-24.5
			S-247.8,197.3-261.4,197.3z"/>
		<circle class="st1" cx="-261.4" cy="208.4" r="5.5"/>
	</g>
</g>
<g>
	<g>
		<path d="M-196.8,259h-3.4l-13-39.6h4.4l10.3,32l10.3-32h4.4L-196.8,259z"/>
		<path d="M-174.8,259v-39.6h4.2V259H-174.8z"/>
		<path d="M-146.1,259.3c-6,0-9.8-1.5-13.6-5.2l2.9-2.9c3.3,3.3,6.3,4.3,10.8,4.3c5.8,0,9.3-2.7,9.3-7.3c0-2.1-0.6-3.8-1.9-5
			c-1.3-1.1-2.3-1.4-5.2-1.9l-4.6-0.7c-3.1-0.5-5.6-1.5-7.3-3c-2-1.8-3-4.2-3-7.4c0-6.7,4.8-11.2,12.7-11.2c5.1,0,8.4,1.3,11.8,4.3
			l-2.7,2.7c-2.4-2.2-5.1-3.4-9.2-3.4c-5.3,0-8.3,2.9-8.3,7.3c0,1.9,0.6,3.5,1.8,4.6c1.2,1.1,3.3,1.8,5.3,2.2l4.3,0.7
			c3.7,0.6,5.6,1.3,7.2,2.8c2.2,1.8,3.3,4.6,3.3,7.8C-132.4,255.1-137.9,259.3-146.1,259.3z"/>
		<path d="M-107.6,259.3c-8,0-13.8-5.5-13.8-13.4v-26.5h4.2v26.2c0,6,3.8,10,9.6,10c5.8,0,9.6-3.9,9.6-10v-26.2h4.2v26.5
			C-93.7,253.8-99.6,259.3-107.6,259.3z"/>
		<path d="M-57,259l-3.2-9h-17.3l-3.2,9h-4.5l14.6-39.6h3.6l14.5,39.6H-57z M-68.7,225.5l-7.5,20.9h14.8L-68.7,225.5z"/>
		<path d="M-43.3,259v-39.6h4.2v35.8h20.3v3.8C-18.8,259-43.3,259-43.3,259z"/>
		<path d="M1.6,259.3c-6,0-9.8-1.5-13.6-5.2l2.9-2.9c3.3,3.3,6.3,4.3,10.8,4.3c5.8,0,9.3-2.7,9.3-7.3c0-2.1-0.6-3.8-1.9-5
			c-1.3-1.1-2.3-1.4-5.2-1.9l-4.6-0.7c-3.1-0.5-5.6-1.5-7.3-3c-2-1.8-3-4.2-3-7.4c0-6.7,4.8-11.2,12.7-11.2c5.1,0,8.4,1.3,11.8,4.3
			l-2.7,2.7c-2.4-2.2-5.1-3.4-9.2-3.4c-5.3,0-8.3,2.9-8.3,7.3c0,1.9,0.6,3.5,1.8,4.6c1.2,1.1,3.3,1.8,5.3,2.2l4.3,0.7
			c3.7,0.6,5.6,1.3,7.2,2.8c2.2,1.8,3.3,4.6,3.3,7.8C15.3,255.1,9.8,259.3,1.6,259.3z"/>
	</g>
	<g>
		<path d="M-198.7,211.3l-5.3-10.9h-3.8v10.9h-5.3v-27.2h10.7c5.5,0,8.8,3.8,8.8,8.3c0,3.8-2.3,6.2-5,7.2l6.1,11.7L-198.7,211.3
			L-198.7,211.3z M-202.9,188.8h-5v7.2h5c2.3,0,3.9-1.5,3.9-3.6C-199,190.3-200.5,188.8-202.9,188.8z"/>
		<path d="M-188.2,211.3v-27.2h17.9v4.7h-12.6v6.4h10.7v4.7h-10.7v6.6h12.6v4.7L-188.2,211.3L-188.2,211.3z"/>
		<path d="M-149.5,211.3l-1.6-4.8h-9.7l-1.6,4.8h-5.5l9.9-27.2h4.2l9.9,27.2C-144,211.3-149.5,211.3-149.5,211.3z M-155.9,192.1
			l-3.4,9.9h6.8L-155.9,192.1z"/>
		<path d="M-140.6,211.3v-27.2h5.3v22.5h12.4v4.7H-140.6z"/>
		<path d="M-86.5,211.3H-91l-5-16.5l-5,16.5h-4.4l-7.3-27.2h5.5l4.2,17.2l5-17.2h4l5,17.2l4.2-17.2h5.5L-86.5,211.3z"/>
		<path d="M-59.7,208.6c-1.9,1.9-4.2,3-7.3,3s-5.5-1.1-7.4-3c-2.8-2.8-2.7-6.2-2.7-10.9s-0.1-8.1,2.7-10.9c1.9-1.9,4.3-3,7.4-3
			s5.4,1.1,7.3,3c2.8,2.8,2.7,6.2,2.7,10.9S-57,205.8-59.7,208.6z M-63.7,190c-0.8-0.9-2-1.5-3.4-1.5c-1.5,0-2.7,0.6-3.4,1.5
			c-1,1.1-1.3,2.4-1.3,7.7c0,5.2,0.3,6.5,1.3,7.6c0.8,0.9,2,1.5,3.4,1.5c1.5,0,2.6-0.6,3.4-1.5c1-1.1,1.3-2.4,1.3-7.6
			C-62.3,192.4-62.6,191.2-63.7,190z"/>
		<path d="M-37.1,211.3l-5.3-10.9h-3.8v10.9h-5.3v-27.2h10.7c5.5,0,8.8,3.8,8.8,8.3c0,3.8-2.3,6.2-5,7.2l6.1,11.7L-37.1,211.3
			L-37.1,211.3z M-41.3,188.8h-5v7.2h5c2.3,0,3.9-1.5,3.9-3.6C-37.4,190.3-38.9,188.8-41.3,188.8z"/>
		<path d="M-26.6,211.3v-27.2h5.3v22.5h12.4v4.7H-26.6z"/>
		<path d="M12.4,208.7c-1.8,1.8-4.4,2.6-7.2,2.6h-9.8v-27.2h9.8c2.8,0,5.4,0.8,7.2,2.6c3.1,3.1,2.8,6.8,2.8,10.9
			C15.2,201.7,15.5,205.6,12.4,208.7z M8.7,190.5c-0.9-1.1-2.1-1.7-4-1.7h-4v17.8h4c1.8,0,3.1-0.6,4-1.7c1-1.2,1.1-3.2,1.1-7.3
			C9.9,193.4,9.7,191.7,8.7,190.5z"/>
	</g>
</g>
<rect x="-398.4" y="343.4" width="122.7" height="122.7"/>
<path class="st0" d="M-286.4,405c0,28-22.7,50.6-50.6,50.6c-28,0-50.6-22.7-50.6-50.6c0-28,22.7-50.6,50.6-50.6
	C-309.1,354.3-286.4,377-286.4,405z M-337.1,364.7c-22.3,0-40.3,18-40.3,40.3c0,22.3,18,40.3,40.3,40.3c22.3,0,40.3-18.1,40.3-40.3
	C-296.7,382.7-314.8,364.7-337.1,364.7z"/>
<path class="st1" d="M-337.1,391.8c-5,0-9-4-9-9c0-5,4-9,9-9c5,0,9,4,9,9C-328,387.8-332.1,391.8-337.1,391.8z"/>
<g>
	<g>
		<path d="M-389.4,509.5h-1.8l-7-21.2h2.4l5.5,17.1l5.5-17.1h2.4L-389.4,509.5z"/>
		<path d="M-377.6,509.5v-21.2h2.3v21.2H-377.6z"/>
		<path d="M-362.3,509.6c-3.2,0-5.3-0.8-7.2-2.8l1.5-1.5c1.8,1.8,3.4,2.3,5.8,2.3c3.1,0,5-1.5,5-3.9c0-1.1-0.3-2-1-2.6
			c-0.7-0.6-1.2-0.8-2.8-1l-2.5-0.4c-1.7-0.3-3-0.8-3.9-1.6c-1.1-1-1.6-2.3-1.6-4c0-3.6,2.6-6,6.8-6c2.7,0,4.5,0.7,6.3,2.3l-1.5,1.5
			c-1.3-1.2-2.7-1.8-4.9-1.8c-2.8,0-4.5,1.6-4.5,3.9c0,1,0.3,1.9,1,2.4c0.7,0.6,1.8,1,2.9,1.2l2.3,0.4c2,0.3,3,0.7,3.9,1.5
			c1.2,1,1.8,2.4,1.8,4.2C-355,507.4-357.9,509.6-362.3,509.6z"/>
		<path d="M-341.7,509.6c-4.3,0-7.4-2.9-7.4-7.2v-14.2h2.3v14c0,3.2,2,5.3,5.1,5.3c3.1,0,5.1-2.1,5.1-5.3v-14h2.3v14.2
			C-334.3,506.7-337.5,509.6-341.7,509.6z"/>
		<path d="M-314.7,509.5l-1.7-4.8h-9.2l-1.7,4.8h-2.4l7.8-21.2h1.9l7.8,21.2H-314.7z M-321,491.6l-4,11.2h7.9L-321,491.6z"/>
		<path d="M-307.4,509.5v-21.2h2.3v19.1h10.8v2L-307.4,509.5L-307.4,509.5z"/>
		<path d="M-283.4,509.6c-3.2,0-5.3-0.8-7.2-2.8l1.5-1.5c1.8,1.8,3.4,2.3,5.8,2.3c3.1,0,5-1.5,5-3.9c0-1.1-0.3-2-1-2.6
			c-0.7-0.6-1.2-0.8-2.8-1l-2.5-0.4c-1.7-0.3-3-0.8-3.9-1.6c-1.1-1-1.6-2.3-1.6-4c0-3.6,2.6-6,6.8-6c2.7,0,4.5,0.7,6.3,2.3l-1.5,1.5
			c-1.3-1.2-2.7-1.8-4.9-1.8c-2.8,0-4.5,1.6-4.5,3.9c0,1,0.3,1.9,1,2.4c0.7,0.6,1.8,1,2.9,1.2l2.3,0.4c2,0.3,3,0.7,3.9,1.5
			c1.2,1,1.8,2.4,1.8,4.2C-276.1,507.4-279,509.6-283.4,509.6z"/>
	</g>
	<g>
		<path d="M-390.4,484l-2.8-5.8h-2v5.8h-2.8v-14.5h5.7c3,0,4.7,2,4.7,4.5c0,2-1.2,3.3-2.7,3.8l3.2,6.3L-390.4,484L-390.4,484z
			 M-392.6,472h-2.7v3.8h2.7c1.2,0,2.1-0.8,2.1-1.9C-390.6,472.8-391.4,472-392.6,472z"/>
		<path d="M-384.8,484v-14.5h9.6v2.5h-6.7v3.4h5.7v2.5h-5.7v3.5h6.7v2.5L-384.8,484L-384.8,484z"/>
		<path d="M-364.1,484l-0.9-2.6h-5.2l-0.9,2.6h-3l5.3-14.5h2.2l5.3,14.5H-364.1z M-367.5,473.7l-1.8,5.3h3.6L-367.5,473.7z"/>
		<path d="M-359.4,484v-14.5h2.8v12h6.6v2.5H-359.4L-359.4,484z"/>
		<path d="M-330.5,484h-2.4l-2.7-8.8l-2.7,8.8h-2.4l-3.9-14.5h3l2.2,9.2l2.7-9.2h2.1l2.7,9.2l2.3-9.2h3L-330.5,484z"/>
		<path d="M-316.2,482.5c-1,1-2.3,1.6-3.9,1.6s-2.9-0.6-3.9-1.6c-1.5-1.5-1.4-3.3-1.4-5.8c0-2.5,0-4.3,1.4-5.8c1-1,2.3-1.6,3.9-1.6
			s2.9,0.6,3.9,1.6c1.5,1.5,1.5,3.3,1.5,5.8C-314.7,479.2-314.7,481.1-316.2,482.5z M-318.3,472.6c-0.4-0.5-1-0.8-1.8-0.8
			s-1.4,0.3-1.8,0.8c-0.6,0.6-0.7,1.3-0.7,4.1s0.1,3.5,0.7,4.1c0.4,0.5,1.1,0.8,1.8,0.8s1.4-0.3,1.8-0.8c0.6-0.6,0.7-1.3,0.7-4.1
			C-317.6,473.9-317.7,473.2-318.3,472.6z"/>
		<path d="M-304.1,484l-2.8-5.8h-2v5.8h-2.8v-14.5h5.7c3,0,4.7,2,4.7,4.5c0,2-1.2,3.3-2.7,3.8l3.2,6.3L-304.1,484L-304.1,484z
			 M-306.3,472h-2.7v3.8h2.7c1.2,0,2.1-0.8,2.1-1.9C-304.3,472.8-305.1,472-306.3,472z"/>
		<path d="M-298.5,484v-14.5h2.8v12h6.6v2.5H-298.5L-298.5,484z"/>
		<path d="M-277.6,482.6c-1,1-2.3,1.4-3.8,1.4h-5.3v-14.5h5.3c1.5,0,2.9,0.4,3.8,1.4c1.6,1.6,1.5,3.6,1.5,5.8S-276,481-277.6,482.6z
			 M-279.6,472.9c-0.5-0.6-1.1-0.9-2.1-0.9h-2.1v9.5h2.1c1,0,1.6-0.3,2.1-0.9c0.5-0.7,0.6-1.7,0.6-3.9
			C-279,474.5-279.1,473.5-279.6,472.9z"/>
	</g>
</g>
<g>
	<path d="M131.3,209.9l-5.1-10.4h-3.7v10.4h-5.1v-26h10.2c5.3,0,8.4,3.6,8.4,8c0,3.7-2.2,5.9-4.8,6.8l5.8,11.2
		C137.2,209.9,131.3,209.9,131.3,209.9z M127.4,188.4h-4.8v6.9h4.8c2.2,0,3.7-1.4,3.7-3.4S129.6,188.4,127.4,188.4z"/>
	<path d="M141.3,209.9v-26h17.2v4.5h-12.1v6.1h10.3v4.5h-10.3v6.3h12.1v4.5L141.3,209.9L141.3,209.9z"/>
	<path d="M178.1,209.9l-1.5-4.6h-9.3l-1.6,4.6h-5.3l9.5-26h4l9.5,26H178.1z M172,191.6l-3.3,9.5h6.5L172,191.6z"/>
	<path d="M186.4,209.9v-26h5.1v21.5h11.8v4.5C203.3,209.9,186.4,209.9,186.4,209.9z"/>
	<path d="M237.9,209.9h-4.2l-4.8-15.8l-4.8,15.8h-4.2l-7-26h5.3l4,16.4l4.8-16.4h3.8l4.8,16.4l4.1-16.4h5.3L237.9,209.9z"/>
	<path d="M263.4,207.3c-1.8,1.8-4.1,2.9-7,2.9c-3,0-5.2-1-7.1-2.9c-2.6-2.6-2.6-5.9-2.6-10.4c0-4.5-0.1-7.8,2.6-10.4
		c1.8-1.8,4.1-2.9,7.1-2.9s5.2,1,7,2.9c2.6,2.6,2.6,5.9,2.6,10.4C266,201.4,266,204.7,263.4,207.3z M259.6,189.6
		c-0.7-0.8-1.9-1.4-3.3-1.4c-1.4,0-2.6,0.5-3.3,1.4c-1,1.1-1.2,2.3-1.2,7.3c0,5,0.3,6.2,1.2,7.3c0.7,0.8,1.9,1.4,3.3,1.4
		c1.4,0,2.5-0.6,3.3-1.4c1-1.1,1.3-2.3,1.3-7.3C260.9,191.9,260.6,190.7,259.6,189.6z"/>
	<path d="M284.8,209.9l-5.1-10.4h-3.7v10.4H271v-26h10.2c5.3,0,8.4,3.6,8.4,8c0,3.7-2.2,5.9-4.8,6.8l5.8,11.2
		C290.7,209.9,284.8,209.9,284.8,209.9z M280.9,188.4h-4.8v6.9h4.8c2.2,0,3.7-1.4,3.7-3.4S283.1,188.4,280.9,188.4z"/>
	<path d="M294.8,209.9v-26h5.1v21.5h11.8v4.5C311.7,209.9,294.8,209.9,294.8,209.9z"/>
	<path d="M332,207.4c-1.7,1.7-4.2,2.5-6.9,2.5h-9.4v-26h9.4c2.7,0,5.2,0.8,6.9,2.5c2.9,2.9,2.6,6.5,2.6,10.4
		C334.6,200.7,334.9,204.5,332,207.4z M328.4,190c-0.9-1.1-2-1.6-3.8-1.6h-3.8v17h3.8c1.8,0,2.9-0.5,3.8-1.6c1-1.2,1.1-3,1.1-7
		C329.5,192.8,329.4,191.2,328.4,190z"/>
	<path d="M134.8,259.4h-3.6l-13.6-41.3h4.6l10.7,33.4l10.7-33.4h4.6L134.8,259.4z"/>
	<path d="M154.1,259.4v-41.3h4.4v41.3H154.1z"/>
	<path d="M180.4,259.7c-6.2,0-10.3-1.6-14.2-5.5l3-3c3.4,3.4,6.6,4.5,11.3,4.5c6,0,9.7-2.8,9.7-7.7c0-2.1-0.6-4-2-5.2
		c-1.3-1.2-2.4-1.5-5.4-2l-4.8-0.8c-3.2-0.5-5.8-1.6-7.6-3.1c-2.1-1.9-3.1-4.4-3.1-7.7c0-7,5-11.7,13.2-11.7c5.3,0,8.8,1.3,12.3,4.5
		l-2.8,2.8c-2.6-2.3-5.3-3.5-9.6-3.5c-5.5,0-8.7,3.1-8.7,7.7c0,2,0.6,3.7,1.9,4.8c1.3,1.1,3.4,1.9,5.6,2.3l4.5,0.7
		c3.9,0.6,5.8,1.4,7.5,2.9c2.3,1.9,3.5,4.8,3.5,8.2C194.6,255.3,189,259.7,180.4,259.7z"/>
	<path d="M217,259.7c-8.4,0-14.4-5.7-14.4-14v-27.7h4.4v27.3c0,6.3,3.9,10.4,10,10.4c6,0,10-4.1,10-10.4v-27.3h4.4v27.7
		C231.4,254,225.3,259.7,217,259.7z"/>
	<path d="M266.2,259.4l-3.3-9.3h-18l-3.3,9.3h-4.7l15.2-41.3h3.7l15.1,41.3C270.9,259.4,266.2,259.4,266.2,259.4z M253.9,224.4
		l-7.8,21.8h15.4L253.9,224.4z"/>
	<path d="M276.9,259.4v-41.3h4.4v37.4h21.1v3.9L276.9,259.4L276.9,259.4z"/>
	<path d="M320,259.7c-6.2,0-10.3-1.6-14.2-5.5l3-3c3.4,3.4,6.6,4.5,11.3,4.5c6,0,9.7-2.8,9.7-7.7c0-2.1-0.6-4-2-5.2
		c-1.3-1.2-2.4-1.5-5.4-2l-4.8-0.8c-3.2-0.5-5.8-1.6-7.6-3.1c-2.1-1.9-3.1-4.4-3.1-7.7c0-7,5-11.7,13.2-11.7c5.3,0,8.8,1.3,12.3,4.5
		l-2.8,2.8c-2.6-2.3-5.3-3.5-9.6-3.5c-5.5,0-8.7,3.1-8.7,7.7c0,2,0.6,3.7,1.9,4.8c1.3,1.1,3.4,1.9,5.6,2.3l4.5,0.7
		c3.9,0.6,5.8,1.4,7.5,2.9c2.3,1.9,3.5,4.8,3.5,8.2C334.3,255.3,328.6,259.7,320,259.7z"/>
</g>
<g>
	<rect x="29.4" y="183.7" width="75.6" height="75.6"/>
	<path class="st0" d="M98.4,221.6c0,17.2-14,31.2-31.2,31.2c-17.2,0-31.2-14-31.2-31.2c0-17.2,14-31.2,31.2-31.2
		C84.4,190.4,98.4,204.4,98.4,221.6z M67.2,196.8c-13.7,0-24.8,11.1-24.8,24.8c0,13.7,11.1,24.8,24.8,24.8
		c13.7,0,24.8-11.1,24.8-24.8C92,207.9,80.9,196.8,67.2,196.8z"/>
	<circle class="st1" cx="67.2" cy="208" r="5.6"/>
</g>
<rect x="-235" y="335.1" width="122.7" height="122.7"/>
<path class="st0" d="M-123.1,396.7c0,28-22.7,50.6-50.6,50.6c-28,0-50.6-22.7-50.6-50.6c0-28,22.7-50.6,50.6-50.6
	C-145.7,346.1-123.1,368.7-123.1,396.7z M-173.7,356.4c-22.3,0-40.3,18-40.3,40.3c0,22.3,18,40.3,40.3,40.3
	c22.3,0,40.3-18.1,40.3-40.3C-133.4,374.4-151.4,356.4-173.7,356.4z"/>
<path class="st1" d="M-173.7,383.6c-5,0-9-4-9-9c0-5,4-9,9-9c5,0,9,4,9,9C-164.7,379.5-168.7,383.6-173.7,383.6z"/>
<g>
	<rect x="-239.6" y="464.9" class="st2" width="131.5" height="52.8"/>
	<path d="M-227.2,479.7l-2.9-5.9h-2.1v5.9h-2.9v-14.7h5.8c3,0,4.8,2.1,4.8,4.5c0,2.1-1.3,3.4-2.7,3.9l3.3,6.4H-227.2z M-229.4,467.5
		h-2.7v3.9h2.7c1.3,0,2.1-0.8,2.1-1.9C-227.3,468.3-228.2,467.5-229.4,467.5z"/>
	<path d="M-221.6,479.7v-14.7h9.7v2.6h-6.8v3.5h5.8v2.6h-5.8v3.6h6.8v2.6L-221.6,479.7L-221.6,479.7z"/>
	<path d="M-200.7,479.7l-0.9-2.6h-5.2l-0.9,2.6h-3l5.4-14.7h2.3l5.4,14.7H-200.7z M-204.2,469.3l-1.9,5.4h3.7L-204.2,469.3z"/>
	<path d="M-196,479.7v-14.7h2.9v12.2h6.7v2.6L-196,479.7L-196,479.7z"/>
	<path d="M-166.9,479.7h-2.4l-2.7-8.9l-2.7,8.9h-2.4l-3.9-14.7h3l2.3,9.3l2.7-9.3h2.2l2.7,9.3l2.3-9.3h3L-166.9,479.7z"/>
	<path d="M-152.4,478.2c-1,1-2.3,1.6-4,1.6c-1.7,0-3-0.6-4-1.6c-1.5-1.5-1.4-3.3-1.4-5.9c0-2.5,0-4.4,1.4-5.9c1-1,2.3-1.6,4-1.6
		c1.7,0,2.9,0.6,4,1.6c1.5,1.5,1.5,3.3,1.5,5.9S-151,476.7-152.4,478.2z M-154.6,468.1c-0.4-0.5-1.1-0.8-1.8-0.8
		c-0.8,0-1.4,0.3-1.9,0.8c-0.6,0.6-0.7,1.3-0.7,4.1s0.1,3.5,0.7,4.1c0.4,0.5,1.1,0.8,1.9,0.8c0.8,0,1.4-0.3,1.8-0.8
		c0.6-0.6,0.7-1.3,0.7-4.1S-154,468.8-154.6,468.1z"/>
	<path d="M-140.3,479.7l-2.9-5.9h-2.1v5.9h-2.9v-14.7h5.8c3,0,4.8,2.1,4.8,4.5c0,2.1-1.3,3.4-2.7,3.9l3.3,6.4H-140.3z M-142.5,467.5
		h-2.7v3.9h2.7c1.3,0,2.1-0.8,2.1-1.9C-140.4,468.3-141.3,467.5-142.5,467.5z"/>
	<path d="M-134.7,479.7v-14.7h2.9v12.2h6.7v2.6L-134.7,479.7L-134.7,479.7z"/>
	<path d="M-113.6,478.2c-1,1-2.4,1.4-3.9,1.4h-5.3v-14.7h5.3c1.5,0,2.9,0.4,3.9,1.4c1.7,1.7,1.5,3.7,1.5,5.9S-112,476.6-113.6,478.2
		z M-115.6,468.4c-0.5-0.6-1.2-0.9-2.2-0.9h-2.2v9.6h2.2c1,0,1.7-0.3,2.2-0.9c0.5-0.7,0.6-1.7,0.6-4
		C-115,470-115.1,469.1-115.6,468.4z"/>
	<path d="M-225.2,507.6h-2l-7.7-23.4h2.6l6.1,18.9l6.1-18.9h2.6L-225.2,507.6z"/>
	<path d="M-214.3,507.6v-23.4h2.5v23.4H-214.3z"/>
	<path d="M-199.4,507.8c-3.5,0-5.8-0.9-8-3.1l1.7-1.7c1.9,1.9,3.7,2.6,6.4,2.6c3.4,0,5.5-1.6,5.5-4.3c0-1.2-0.4-2.3-1.1-2.9
		c-0.8-0.7-1.3-0.9-3.1-1.1l-2.7-0.4c-1.8-0.3-3.3-0.9-4.3-1.8c-1.2-1.1-1.8-2.5-1.8-4.4c0-4,2.9-6.6,7.5-6.6c3,0,5,0.8,7,2.6
		l-1.6,1.6c-1.4-1.3-3-2-5.4-2c-3.1,0-4.9,1.7-4.9,4.3c0,1.1,0.3,2.1,1.1,2.7s1.9,1.1,3.2,1.3l2.6,0.4c2.2,0.3,3.3,0.8,4.3,1.6
		c1.3,1.1,2,2.7,2,4.6C-191.3,505.3-194.6,507.8-199.4,507.8z"/>
	<path d="M-178.7,507.8c-4.7,0-8.1-3.3-8.1-7.9v-15.7h2.5v15.5c0,3.5,2.2,5.9,5.6,5.9s5.7-2.3,5.7-5.9v-15.5h2.5v15.7
		C-170.5,504.6-174,507.8-178.7,507.8z"/>
	<path d="M-150.9,507.6l-1.9-5.3h-10.2l-1.9,5.3h-2.7l8.6-23.4h2.1l8.6,23.4H-150.9z M-157.8,487.8l-4.4,12.3h8.7L-157.8,487.8z"/>
	<path d="M-144.8,507.6v-23.4h2.5v21.1h12v2.2L-144.8,507.6L-144.8,507.6z"/>
	<path d="M-120.4,507.8c-3.5,0-5.8-0.9-8-3.1l1.7-1.7c1.9,1.9,3.7,2.6,6.4,2.6c3.4,0,5.5-1.6,5.5-4.3c0-1.2-0.4-2.3-1.1-2.9
		c-0.8-0.7-1.3-0.9-3.1-1.1l-2.7-0.4c-1.8-0.3-3.3-0.9-4.3-1.8c-1.2-1.1-1.8-2.5-1.8-4.4c0-4,2.9-6.6,7.5-6.6c3,0,5,0.8,7,2.6
		l-1.6,1.6c-1.4-1.3-3-2-5.5-2c-3.1,0-4.9,1.7-4.9,4.3c0,1.1,0.3,2.1,1.1,2.7c0.7,0.6,1.9,1.1,3.2,1.3l2.6,0.4
		c2.2,0.3,3.3,0.8,4.3,1.6c1.3,1.1,2,2.7,2,4.6C-112.3,505.3-115.5,507.8-120.4,507.8z"/>
</g>
</svg>
